<?xml version="1.0" standalone="no"?>
<!DOCTYPE svg PUBLIC "-//W3C//DTD SVG 20010904//EN"
 "http://www.w3.org/TR/2001/REC-SVG-20010904/DTD/svg10.dtd">
<svg version="1.0" xmlns="http://www.w3.org/2000/svg"
 width="800.000000pt" height="800.000000pt" viewBox="0 0 800.000000 800.000000"
 preserveAspectRatio="xMidYMid meet">
<metadata>
Created by potrace 1.11, written by Peter Selinger 2001-2013
</metadata>
<g transform="translate(0.000000,800.000000) scale(0.100000,-0.100000)"
fill="#000000" stroke="none">
<path d="M2179 7343 c0 -312 -7 -1766 -8 -1843 l-1 -55 -1074 2 -1075 2 -1
-442 c-1 -243 -3 -829 -5 -1302 -12 -2490 -14 -3305 -7 -3305 4 -1 809 -3
1789 -6 l1783 -5 -4 3593 c-3 1976 -5 3599 -5 3606 -1 9 -147 12 -696 12
l-695 0 -1 -257z m-42 -4438 c-1 -715 -5 -1075 -12 -1076 -5 -1 -162 -2 -347
-3 l-338 -2 0 26 c-1 36 1 998 3 1608 l1 522 347 0 348 0 -2 -1075z"/>
<path d="M6307 5433 c-1 -1 -428 -3 -949 -5 -832 -3 -947 -5 -950 -18 -2 -8
-3 -654 -3 -1435 l0 -1420 1088 0 1088 0 -3 -360 -3 -360 -255 -2 c-140 -1
-604 -4 -1030 -7 -426 -3 -800 -5 -831 -5 l-55 -1 -2 -710 -1 -710 1797 2
1797 3 -2 425 c0 234 -2 874 -4 1423 -1 625 -6 1000 -12 1004 -5 3 -201 7
-436 9 -234 2 -709 5 -1055 8 -345 3 -631 8 -634 11 -6 5 -12 243 -15 535 l-2
165 75 2 c41 0 341 4 665 8 325 3 700 8 835 10 135 2 323 4 418 4 l172 1 -1
714 -2 714 -844 -1 c-465 -1 -845 -3 -846 -4z"/>
</g>
</svg>
